<svg xmlns="http://www.w3.org/2000/svg" width="600" height="510" viewBox="0 0 600 510" role="img" aria-labelledby="title desc">
 <title id="title">湖面为主，岸线引路：原创构图与站位示意</title><desc id="desc">上方示范画面，下方示意拍摄者、同伴与景观方向。不是现场机位地图。</desc>
 <defs><clipPath id="frame"><rect x="20" y="36" width="560" height="290" rx="10"/></clipPath><marker id="arrow" markerWidth="8" markerHeight="8" refX="7" refY="4" orient="auto"><path d="M0 0 8 4 0 8Z" fill="#1f5f69"/></marker></defs>
 <rect width="600" height="510" rx="12" fill="#fffdf7"/>
 <g clip-path="url(#frame)"><rect x="20" y="36" width="560" height="290" fill="#d6e7e4"/><path d="M20 160 110 116 168 149 262 108 370 146 460 114 580 160" fill="#78836c"/><path d="M20 170H580V326H20Z" fill="#78b8b7"/><path d="M20 284 Q110 226 230 247 T420 326H20Z" fill="#e3d5b9"/><g ><circle cx="414" cy="212" r="7" fill="#d76a3b"/><path d="M414 220v22m-11-12 11-10 11 10m-11 12-9 16m9-16 9 16" stroke="#d76a3b" stroke-width="6" stroke-linecap="round" fill="none"/></g><path d="M207 36V326M393 36V326M20 133H580M20 229H580" stroke="#fffdf7" stroke-width="1.5" stroke-dasharray="7 6" opacity=".8"/></g>
 <g font-family="Microsoft YaHei, sans-serif" font-size="22" fill="#16231f"><rect x="34" y="48" width="255" height="35" rx="6" fill="#fffdf7" opacity=".95"/><text x="44" y="74">天约三分之一</text><rect x="328" y="48" width="236" height="35" rx="6" fill="#fffdf7" opacity=".95"/><text x="339" y="74">湖面为主</text><text x="22" y="363" font-size="20">站位与朝向示意 · 不是现场地图</text><rect x="71" y="391" width="31" height="51" rx="6" fill="#1f5f69"/><path d="M108 418H410" stroke="#1f5f69" stroke-width="4" marker-end="url(#arrow)"/><g ><circle cx="305" cy="401" r="7" fill="#d76a3b"/><path d="M305 409v22m-11-12 11-10 11 10m-11 12-9 16m9-16 9 16" stroke="#d76a3b" stroke-width="6" stroke-linecap="round" fill="none"/></g><rect x="426" y="387" width="90" height="63" rx="8" fill="#d8cdb9"/><text x="53" y="482">你的手机</text><text x="246" y="482">同伴站位</text><text x="422" y="482">景观方向</text></g>
 </svg>
