<svg xmlns="http://www.w3.org/2000/svg" width="600" height="510" viewBox="0 0 600 510" role="img" aria-labelledby="title desc">
 <title id="title">食物靠窗，桌面留白：原创构图与站位示意</title><desc id="desc">上方示范画面，下方示意拍摄者、同伴与景观方向。不是现场机位地图。</desc>
 <defs><clipPath id="frame"><rect x="20" y="36" width="560" height="290" rx="10"/></clipPath><marker id="arrow" markerWidth="8" markerHeight="8" refX="7" refY="4" orient="auto"><path d="M0 0 8 4 0 8Z" fill="#1f5f69"/></marker></defs>
 <rect width="600" height="510" rx="12" fill="#fffdf7"/>
 <g clip-path="url(#frame)"><rect x="20" y="36" width="560" height="290" fill="#d6e7e4"/><path d="M20 36H580V326H20Z" fill="#ddc8a7"/><path d="M20 45 170 45 330 326H20Z" fill="#fff4d6" opacity=".55"/><ellipse cx="256" cy="216" rx="137" ry="88" fill="#fffdf7"/><ellipse cx="256" cy="213" rx="110" ry="66" fill="#edb965"/><path d="M170 210q60-60 135 15m-107 19q60-60 116-35" stroke="#995e3d" stroke-width="14" fill="none"/><path d="M207 36V326M393 36V326M20 133H580M20 229H580" stroke="#fffdf7" stroke-width="1.5" stroke-dasharray="7 6" opacity=".8"/></g>
 <g font-family="Microsoft YaHei, sans-serif" font-size="22" fill="#16231f"><rect x="34" y="48" width="255" height="35" rx="6" fill="#fffdf7" opacity=".95"/><text x="44" y="74">自然光从左来</text><rect x="328" y="48" width="236" height="35" rx="6" fill="#fffdf7" opacity=".95"/><text x="339" y="74">主食物留完整</text><text x="22" y="363" font-size="20">站位与朝向示意 · 不是现场地图</text><rect x="71" y="391" width="31" height="51" rx="6" fill="#1f5f69"/><rect x="228" y="389" width="135" height="59" rx="12" fill="#e3d5b9"/><ellipse cx="290" cy="415" rx="39" ry="17" fill="#d2976d"/><path d="M97 406 234 409" stroke="#1f5f69" stroke-width="4" marker-end="url(#arrow)"/><text x="65" y="470">手机斜上方</text><text x="235" y="470">桌面食物</text><text x="420" y="470">窗侧自然光</text></g>
 </svg>
